<svg version="1.1" id="Layer_1" xmlns="http://www.w3.org/2000/svg" xmlns:xlink="http://www.w3.org/1999/xlink" x="0px" y="0px"
	 width="20%" viewBox="0 0 1024 1024" enable-background="new 0 0 1024 1024" xml:space="preserve">
<path fill="#000000" opacity="1.000000" stroke="none" 
	d="
M761.491089,608.636597 
	C765.016174,593.412354 765.737000,578.049255 768.467407,563.001038 
	C769.001282,560.058838 768.751465,557.030212 767.986450,554.070862 
	C767.549377,552.380249 767.116394,550.746948 765.103088,550.461060 
	C762.873596,550.144592 761.741211,551.626892 761.010498,553.414673 
	C759.499573,557.111145 757.988403,560.811646 756.631165,564.566101 
	C748.479248,587.116028 731.627197,601.836182 712.052979,614.070984 
	C708.870850,616.059998 706.423767,619.218079 702.627258,620.350220 
	C701.251648,618.459900 701.364441,616.562073 702.271301,615.006653 
	C703.335815,613.180664 703.863403,611.864014 701.843323,610.352356 
	C699.411621,608.532715 697.244324,609.218872 694.876892,610.437378 
	C692.993225,611.406921 691.967773,612.594177 692.624329,614.777466 
	C692.960083,615.893982 693.198364,617.048096 693.628113,618.126526 
	C694.960327,621.469482 696.011414,624.343384 690.832397,625.572754 
	C687.879456,626.273743 687.826355,629.425049 688.396973,631.921692 
	C691.580383,645.851013 689.887573,660.083069 691.095337,674.149902 
	C692.809814,694.118042 693.309631,714.191345 694.263123,734.222778 
	C694.372498,736.520569 695.400208,738.411438 696.450867,740.262146 
	C705.645569,756.457520 714.920227,772.607544 722.940857,789.435547 
	C723.142761,789.859253 723.566772,790.177063 724.248840,790.958557 
	C726.319763,785.884888 725.656555,780.592468 727.145386,775.823059 
	C732.601685,758.343872 738.858887,741.179016 748.011108,725.209717 
	C755.053223,712.922241 761.805481,700.458069 767.594849,687.541809 
	C772.119629,677.446838 781.218201,672.199829 789.245911,665.952820 
	C804.791687,653.855530 822.926270,646.905579 842.051941,643.321350 
	C856.588440,640.597046 870.149414,643.892395 881.081543,655.019653 
	C888.025452,662.087463 893.547363,669.961548 897.065735,679.643188 
	C883.938110,671.907471 871.389465,664.226685 854.927063,666.590759 
	C839.622253,668.788696 826.667297,675.412231 813.500854,682.333435 
	C814.385925,684.413513 815.313843,683.740173 815.953064,683.576355 
	C824.315979,681.434082 832.231995,680.399109 841.119568,683.285828 
	C853.354919,687.260071 865.549805,690.845764 876.581360,697.708374 
	C889.564697,705.785095 901.164062,715.850830 911.201904,726.967773 
	C920.042480,736.758789 928.117249,747.983276 931.682983,761.455566 
	C932.421875,764.247253 934.670166,766.613220 936.029175,769.274231 
	C937.480042,772.114990 937.824585,774.957397 935.373779,777.601501 
	C932.801575,780.376709 930.524536,778.527466 928.244507,777.245605 
	C918.746338,771.905212 908.819763,773.594116 899.081787,775.908875 
	C892.618958,777.445129 889.159180,782.459900 888.372253,788.971008 
	C884.250488,823.078003 868.598206,852.148865 849.025085,879.526917 
	C842.339905,888.877808 835.508118,898.127441 828.988159,907.591980 
	C821.597778,918.320007 812.706604,927.336670 801.318665,933.837769 
	C798.300598,935.560608 795.533386,937.759521 792.785339,939.911316 
	C786.832886,944.572449 783.869995,945.491699 769.608215,946.578186 
	C769.139343,949.312378 768.972107,952.175049 769.772766,954.857117 
	C771.491028,960.612793 770.062622,966.605103 771.575623,972.450989 
	C772.488586,975.978577 769.855286,978.160034 765.985718,979.292786 
	C751.458313,983.545410 737.187195,982.045654 722.579651,979.326660 
	C691.792969,973.596130 663.312500,961.006592 633.988403,950.897034 
	C629.452576,949.333252 624.671326,948.537048 620.339233,946.274658 
	C614.257568,943.098572 612.368591,939.865967 613.201355,933.075867 
	C613.350952,931.856323 613.629150,930.750000 612.515137,929.915649 
	C611.090027,928.848328 610.030273,930.011841 608.901733,930.613831 
	C597.163330,936.875854 586.433716,944.771301 574.760559,951.211975 
	C552.594727,963.441956 530.652588,976.083557 506.269043,983.418274 
	C497.389404,986.089172 488.055206,987.253601 478.923248,989.079590 
	C470.773499,990.709229 462.611176,992.276184 454.464142,993.919250 
	C442.522339,996.327637 430.733063,996.432251 419.047180,992.328857 
	C413.362640,990.332825 407.422516,991.990356 401.792847,992.687256 
	C392.514801,993.835632 383.222046,993.858521 373.950409,994.293823 
	C356.176483,995.128296 338.375244,995.757141 320.818237,991.475098 
	C309.751862,988.775940 299.239319,984.771606 289.149414,979.542725 
	C286.050690,977.936890 282.870453,976.477966 279.675354,975.070251 
	C265.869995,968.988037 257.017090,958.529724 252.479706,944.293823 
	C250.875778,939.261536 253.354797,934.842102 254.979813,930.339050 
	C255.703796,928.332703 257.206207,926.599487 257.065430,923.814758 
	C246.156860,917.737549 240.948502,906.460754 234.043793,896.587463 
	C232.656937,894.604309 233.392441,893.339172 235.074112,891.986450 
	C253.637405,877.054810 272.163544,862.077026 290.698334,847.109924 
	C291.864288,846.168396 292.931915,845.073486 294.192963,844.286560 
	C301.307434,839.847107 303.772614,834.025391 300.583282,825.857178 
	C297.608612,818.238770 301.368896,812.497009 307.113525,808.063171 
	C315.945221,801.246643 324.655396,794.127441 334.155060,788.349915 
	C358.500671,773.543579 381.568848,756.753662 406.200684,742.417053 
	C409.797729,740.323425 413.478210,738.371155 417.145599,736.400940 
	C424.301605,732.556519 429.069916,726.630005 432.370972,719.327026 
	C435.722229,711.912781 438.892303,704.460632 441.055023,696.573730 
	C442.516266,691.244995 445.549866,686.573120 448.486511,681.909912 
	C450.695038,678.402954 452.784485,674.820984 455.413330,670.466736 
	C448.208282,670.696716 441.793365,671.840515 435.440247,670.492737 
	C433.170288,670.011230 430.618134,670.233337 428.609009,669.270203 
	C423.276642,666.713806 418.224091,668.583191 413.101440,669.625366 
	C412.040588,669.841187 410.264160,670.702759 410.259644,671.278137 
	C410.228333,675.273315 406.671539,675.037354 404.220917,676.537659 
	C404.599976,679.233032 405.182220,681.967896 405.325439,684.725647 
	C405.533203,688.725952 403.664246,691.480591 399.601959,692.286316 
	C398.078400,692.588440 396.711304,692.906128 395.659363,694.138489 
	C392.920227,697.347351 389.585449,697.923706 385.739563,696.371826 
	C384.830566,696.004944 383.753937,695.561829 382.859253,695.725830 
	C371.836426,697.745667 364.051361,691.780640 356.704010,685.034180 
	C350.237457,679.096558 343.675140,673.246399 338.174866,666.487061 
	C336.404175,667.571045 337.085175,668.714355 337.334045,669.477234 
	C340.449249,679.026123 341.437714,689.216980 347.394714,697.913757 
	C351.997131,704.632996 348.628113,711.328918 340.534210,710.782043 
	C331.062531,710.142090 321.654510,712.591614 312.231232,710.490662 
	C298.912598,707.521179 286.765625,702.020569 275.210754,694.827759 
	C265.603027,688.846985 255.736008,683.296814 246.800858,676.287292 
	C239.465103,670.532654 232.168991,664.748230 226.414047,656.861084 
	C230.156693,676.271423 243.268066,689.065369 257.298676,702.640381 
	C251.892960,703.152710 247.352859,704.628967 243.303070,703.776428 
	C229.525284,700.875732 215.704163,698.148926 202.980453,691.360107 
	C184.033829,681.251160 174.007233,665.269531 169.551788,644.839844 
	C162.949341,614.565430 170.591125,586.176636 180.353592,557.995544 
	C192.368622,523.311951 212.433624,493.036682 232.604797,462.840790 
	C235.947891,457.836243 237.928818,452.903839 237.763412,446.685303 
	C237.115585,422.328583 241.653503,398.702667 248.753098,375.503235 
	C249.238876,373.915894 249.641418,372.296478 249.963272,370.668396 
	C250.116760,369.891968 249.989700,369.060059 249.989700,368.401886 
	C249.539276,368.043915 249.288086,367.669067 249.023407,367.659271 
	C239.311066,367.301117 233.772247,360.840118 228.196793,353.991455 
	C207.252975,328.264954 186.969284,301.993225 167.980560,274.840088 
	C158.199158,260.853088 152.654266,244.320984 148.086502,227.627884 
	C142.993393,209.014969 137.618835,190.476120 132.574158,171.844955 
	C131.539993,168.025528 132.275284,165.472305 135.162720,163.078308 
	C142.644669,156.874939 150.980988,152.049820 159.571198,147.599335 
	C161.735001,146.478317 163.753799,146.955566 165.850784,147.599991 
	C209.890991,161.134186 250.444504,180.708328 283.096710,214.343719 
	C289.922363,221.374939 297.740814,227.438446 305.038147,234.018448 
	C306.978088,235.767700 308.639587,235.805511 310.792633,234.322250 
	C330.812225,220.530731 351.267090,207.333420 370.809723,192.899567 
	C385.399567,182.123764 401.239838,174.714874 418.481659,169.785004 
	C420.053711,169.335526 421.849304,168.767059 422.934265,167.659439 
	C430.717377,159.713898 440.964539,158.141632 451.059753,157.948883 
	C470.352539,157.580490 489.530853,155.088882 508.866730,155.563461 
	C523.078125,155.912277 536.499268,159.265991 549.677429,164.142944 
	C549.988892,164.258224 550.277893,164.432663 550.584290,164.563324 
	C561.030029,169.017380 560.935730,168.633804 565.563782,158.295120 
	C578.613831,129.142685 590.274414,99.234581 608.289917,72.599136 
	C620.999573,53.808311 636.897766,37.921516 655.612305,25.039925 
	C663.513672,19.601257 677.197876,24.762632 679.568726,34.066586 
	C684.506042,53.441956 691.057068,72.295662 697.377075,91.229004 
	C697.966736,92.995461 698.398987,94.750916 698.227844,96.609009 
	C696.688965,113.312431 698.403198,130.267044 694.288574,146.774673 
	C692.230164,155.033188 689.598328,163.096390 685.422363,170.517136 
	C683.690979,173.593826 684.272583,176.972733 683.037292,180.101196 
	C678.269714,192.176254 673.923096,204.418121 669.110779,216.474548 
	C667.884460,219.546936 668.162537,221.121613 671.000122,222.931122 
	C717.945496,252.868134 759.071228,289.745667 797.258911,329.969513 
	C828.074341,362.427979 855.796936,397.366852 877.691162,436.577484 
	C889.313538,457.392029 898.909668,479.131104 904.408142,502.466888 
	C908.077820,518.041565 909.336853,533.748535 904.457886,549.245850 
	C896.895142,573.268494 879.702942,588.107727 856.954224,597.140442 
	C851.573364,599.276978 845.828430,600.503784 840.235107,602.093079 
	C838.888428,602.475647 837.409119,603.425903 835.727234,601.210205 
	C849.790039,590.644714 858.647583,576.488953 863.110046,559.493347 
	C859.484314,564.614258 856.075500,569.906555 852.192139,574.823975 
	C840.512268,589.613647 825.266357,599.402344 807.727234,605.851868 
	C802.576843,607.745667 797.451660,609.716125 791.994812,610.605713 
	C791.181763,610.738281 790.084717,610.825195 789.655823,611.362061 
	C783.899292,618.566833 777.081238,614.932739 770.593994,613.140259 
	C767.449341,612.271423 764.073181,611.533813 761.491089,608.636597 
M488.486237,762.431396 
	C486.112030,764.255432 483.817383,766.198181 481.335785,767.862000 
	C479.678619,768.973022 477.328857,770.185669 475.784882,768.588074 
	C472.777924,765.476685 470.039001,765.442200 466.786163,767.885193 
	C466.100952,768.399780 464.820160,768.212524 464.569672,767.437134 
	C463.376495,763.743530 459.229340,763.548157 457.247375,760.873779 
	C452.247589,763.341797 447.486389,766.150574 442.396118,768.100037 
	C434.249634,771.220093 426.585938,775.164978 419.407654,780.047852 
	C400.676880,792.789124 382.065887,805.717590 362.039459,816.405029 
	C357.066345,819.058899 351.863098,821.283875 346.909027,823.970520 
	C337.519501,829.062439 329.087341,835.598694 320.385620,841.744324 
	C312.578400,847.258118 307.048523,854.672180 301.659851,862.279419 
	C298.867188,866.221802 297.788300,870.697083 298.176575,875.537354 
	C298.880371,884.310608 299.555237,893.086304 300.193726,901.864502 
	C300.334351,903.798523 301.053680,905.399536 302.401215,906.748535 
	C312.648163,917.007019 324.446716,924.509827 339.071106,926.529053 
	C360.196899,929.445923 381.561798,928.830811 402.785675,930.544495 
	C421.388641,932.046448 440.061615,930.737671 458.702332,929.929321 
	C473.658966,929.280701 488.619598,928.969849 503.298706,925.567017 
	C510.102112,923.989990 516.950134,921.927002 523.909424,922.083191 
	C539.930664,922.442810 550.610229,914.577820 557.025818,900.832397 
	C563.676208,886.583923 566.690491,871.030945 571.277222,856.047180 
	C572.422119,852.306946 572.324219,848.142212 572.501892,844.159424 
	C572.835693,836.675781 574.132507,828.836121 571.995605,821.796753 
	C569.745117,814.383240 570.851685,808.438904 574.822876,802.485291 
	C576.855164,799.438538 577.026367,796.392273 575.961487,792.986755 
	C572.121521,780.706299 566.424744,769.939392 553.737366,764.580505 
	C553.045715,764.288330 552.450928,763.504089 552.060425,762.808838 
	C550.653076,760.303772 553.083496,740.049316 555.006836,737.959351 
	C555.451355,737.476318 556.051086,737.137573 556.572327,736.723450 
	C561.135315,733.097961 565.903931,729.699341 570.214722,725.795288 
	C578.767700,718.049316 586.039429,709.473267 585.852112,696.925659 
	C585.814941,694.432312 587.412476,693.840881 589.502014,693.981934 
	C593.336731,694.240723 596.322449,692.571045 598.669189,689.757263 
	C606.108948,680.836609 613.660278,671.905090 606.840271,659.012817 
	C610.224243,657.473877 613.820007,657.595276 616.506897,654.831238 
	C624.925293,646.171021 629.399292,635.552917 632.508789,624.204468 
	C633.374878,621.043823 631.848511,619.860413 628.677063,620.654907 
	C622.912842,622.098877 617.587219,624.511536 613.400818,628.741455 
	C608.367493,633.827087 603.206848,638.898499 598.923218,644.594177 
	C583.808533,664.691101 569.904968,685.624451 557.032776,707.236145 
	C556.054260,708.879150 555.631897,711.022034 552.513000,712.171997 
	C559.539429,681.058044 578.385559,656.583618 592.947266,629.917175 
	C591.831726,628.961365 590.153870,628.738342 588.647644,628.102234 
	C583.768677,626.041443 580.867126,627.168335 578.817261,632.360779 
	C575.740540,640.154175 570.866821,646.933105 565.223816,653.162537 
	C557.959656,661.181580 547.999512,663.130188 540.233826,658.036804 
	C538.459900,656.873169 537.736267,654.928650 536.206909,653.691650 
	C535.366699,653.011963 534.303162,652.226379 533.026733,653.033081 
	C531.795227,653.811401 531.774048,654.890259 532.227844,656.091248 
	C534.017578,660.828552 536.810791,664.331421 542.057129,665.807983 
	C546.072937,666.938293 550.098938,666.017334 555.132324,666.173889 
	C542.846863,686.090027 537.231689,707.131958 534.923096,729.197998 
	C534.590271,732.380066 532.487488,733.043518 529.547913,732.820068 
	C518.406006,731.972961 507.258911,732.125977 496.103607,732.793091 
	C492.512604,733.007751 488.872467,733.894592 484.824646,732.847229 
	C485.362488,726.404724 486.938141,720.321106 489.154663,714.461853 
	C493.271606,703.578979 497.700043,692.813904 502.531281,681.605347 
	C504.311523,678.795349 507.293091,676.761292 508.445312,672.650269 
	C503.825195,674.701233 503.762604,678.926941 501.491119,682.430054 
	C493.673615,693.418396 485.764160,704.402039 475.803925,713.532593 
	C471.684570,717.308777 469.791595,721.048523 470.227631,726.489990 
	C470.479401,729.632263 470.670166,732.456055 473.811096,734.130432 
	C474.731781,734.621338 475.190521,735.532288 475.246918,736.611816 
	C475.544189,742.302551 475.132996,747.840637 471.825348,752.875732 
	C472.925201,754.090088 475.142181,754.038025 475.664795,756.283264 
	C476.050507,757.940308 477.856110,758.063477 478.910339,757.068481 
	C483.606323,752.636475 488.837433,752.085327 495.005524,753.392334 
	C498.474976,754.127563 502.422943,752.793274 504.497162,756.989319 
	C506.680023,761.405029 502.816010,763.198303 500.673096,765.727417 
	C500.244598,766.233154 499.767181,766.712097 499.250214,767.125793 
	C497.075104,768.866577 494.647064,770.177734 491.914703,768.776978 
	C489.248199,767.409973 488.359894,764.950623 489.507324,761.589111 
	C491.365509,759.567078 494.138580,758.480408 495.680054,755.591187 
	C493.221161,755.168945 491.061707,754.666931 488.687927,756.119446 
	C489.140289,758.106812 489.614380,760.062927 488.486237,762.431396 
M482.432343,624.734070 
	C499.235474,623.333374 515.335388,618.242249 531.754822,614.912415 
	C543.334351,612.564026 554.328369,607.586853 565.303467,602.692932 
	C583.162781,594.729248 600.391479,585.858276 616.605835,574.997742 
	C631.285767,565.164978 644.290771,553.587402 653.080078,537.969971 
	C656.425720,532.025391 660.572754,525.482300 659.115417,518.828613 
	C657.315552,510.610779 652.966064,502.951385 649.746765,495.120117 
	C644.525940,497.029694 645.139587,503.094788 640.891602,505.586151 
	C638.525879,501.257477 638.212891,496.081635 633.736206,492.927917 
	C632.486816,496.737701 633.866760,499.978210 634.450867,503.104004 
	C635.852783,510.604736 633.479004,518.105408 634.736816,525.466614 
	C635.466309,529.736206 635.040771,533.342346 632.711548,536.845520 
	C630.688599,539.888062 628.912109,543.133301 626.599915,545.937012 
	C620.730347,553.054138 613.547729,557.915771 603.804504,557.074951 
	C592.734314,556.119507 584.575500,550.311218 578.476440,541.268311 
	C572.899353,532.999329 569.585022,523.829834 567.387024,514.169922 
	C563.890564,498.802887 563.253296,483.575623 568.633362,468.424133 
	C571.022034,461.697113 573.642029,455.093048 577.206970,448.895172 
	C572.300537,446.515167 565.517822,447.155121 560.761780,450.042999 
	C552.184937,455.250824 545.777039,462.653503 539.774048,470.490326 
	C538.668945,471.933075 537.506653,473.885803 535.394165,472.947113 
	C533.030273,471.896637 533.724304,469.571442 534.215881,467.661072 
	C535.294128,463.470184 536.555420,459.351166 538.513611,455.440857 
	C541.210999,450.054352 543.665955,444.546417 546.457642,438.593872 
	C541.647583,438.475067 539.115051,441.616760 539.380310,444.168762 
	C539.783020,448.043732 537.706482,448.713043 535.355652,449.805847 
	C508.371246,462.350128 480.544525,472.153076 450.573822,474.034821 
	C433.270203,475.121246 416.672241,471.824249 401.877441,462.296570 
	C387.264404,452.885956 376.818604,439.547821 368.083008,424.758057 
	C364.620697,418.896240 364.200317,418.702332 357.827240,421.295715 
	C347.861572,425.351105 340.517700,432.950134 332.794464,440.015472 
	C330.626068,441.999207 331.079742,444.544495 331.716644,447.019226 
	C333.953247,455.709717 336.048981,464.441132 338.511444,473.067596 
	C341.479279,483.464386 346.202026,493.143707 351.232178,503.794189 
	C354.733917,498.352142 359.030792,494.868225 362.879272,490.283600 
	C359.012970,489.161621 358.190399,493.215027 355.345764,492.842041 
	C354.173218,490.534790 355.472595,489.101288 357.086700,487.833313 
	C358.303070,486.877808 359.552307,486.049469 358.655090,484.177856 
	C357.658966,482.099823 357.133331,479.940277 359.436981,478.389252 
	C361.711609,476.857758 363.927155,477.730896 365.937225,479.113190 
	C368.597961,480.942871 370.992767,480.947357 374.251709,479.895081 
	C380.150116,477.990540 386.397064,478.002167 392.315857,480.558807 
	C394.068481,481.315796 396.194489,482.059570 394.720123,484.959900 
	C390.684143,484.800201 387.030426,480.645691 382.640381,483.767639 
	C386.661530,486.970947 391.020020,488.898651 395.875610,489.699280 
	C398.089325,490.064331 399.846069,490.867737 401.145996,492.962616 
	C404.430176,498.255035 407.683594,503.609711 411.477753,508.532166 
	C416.768921,515.396729 422.124817,522.147217 425.943085,530.012878 
	C433.602814,545.791931 438.979309,561.878174 436.437988,579.925842 
	C434.627411,592.783875 426.431366,599.706848 413.703735,597.487427 
	C405.051666,595.978699 399.194611,590.224060 394.545868,583.378967 
	C383.839905,567.614990 380.099365,549.651001 378.828491,530.994141 
	C378.282562,522.979919 379.502289,515.175964 382.220978,507.712372 
	C376.004791,505.467346 373.527557,506.389526 370.991089,511.348846 
	C363.600159,525.799744 359.816895,541.158020 359.378998,557.364075 
	C359.306366,560.052063 359.940582,562.997559 362.677338,563.357422 
	C367.288330,563.963806 368.726074,567.250977 369.972687,570.609314 
	C370.839020,572.943176 372.202576,574.688599 373.926819,576.218323 
	C375.799194,577.879395 378.415100,579.255859 376.691254,582.261292 
	C374.913757,585.360107 372.006165,584.348083 369.592316,583.238037 
	C364.437592,580.867432 358.632324,579.885315 354.293518,575.229553 
	C353.553650,578.234680 354.694366,579.972595 355.632935,581.672913 
	C371.209930,609.893311 396.253998,623.136963 427.298615,626.703979 
	C445.456177,628.790283 463.524017,627.414368 482.432343,624.734070 
M185.668396,250.919098 
	C192.265839,262.864929 197.207642,275.674164 204.625626,287.194733 
	C207.120255,291.069061 209.886414,293.427734 214.834976,295.160156 
	C230.222046,300.547028 245.111801,307.441986 256.086700,320.390442 
	C257.297943,321.819489 258.265503,323.805389 260.645844,323.889954 
	C262.411499,321.989838 262.739380,319.973389 262.139557,317.444733 
	C261.059998,312.893524 261.663147,308.518524 264.647797,304.679138 
	C266.649963,302.103607 266.770599,300.021667 264.097076,297.405701 
	C257.994507,291.434570 260.160950,283.527588 260.182739,276.270203 
	C260.189056,274.161713 262.442108,272.697998 264.538208,271.824738 
	C267.034302,270.784882 269.016357,269.166412 270.485931,266.967743 
	C268.948486,263.571167 265.269318,262.137024 263.697388,258.182190 
	C268.022522,259.094055 270.852753,261.355835 273.841187,263.332245 
	C275.497925,264.427948 278.101135,266.046875 279.087250,263.882446 
	C281.130585,259.397400 284.830658,256.853333 288.727722,254.304169 
	C286.964813,250.629227 283.917419,249.085861 281.228821,247.273270 
	C272.395813,241.318176 262.701935,236.785583 253.976898,230.606293 
	C243.916138,223.481018 232.468536,218.502731 222.375183,211.532455 
	C210.940979,203.636230 198.905563,196.972855 186.605240,190.700943 
	C177.559235,186.088379 168.143097,182.256363 158.549332,178.910080 
	C156.038651,178.034363 152.963882,177.036942 151.534164,180.242752 
	C149.899170,183.908875 153.143250,185.267181 155.688141,186.383301 
	C159.492798,188.051910 163.478302,189.303680 167.327103,190.878799 
	C168.489243,191.354401 170.383087,191.429047 170.070984,194.013016 
	C165.511185,192.218628 160.845703,195.544113 156.322296,192.795105 
	C167.427185,211.368530 174.222092,231.898117 185.668396,250.919098 
M606.696228,119.101372 
	C600.028015,135.671265 590.950439,151.293686 586.243408,169.719849 
	C589.994751,167.815186 592.666748,166.099670 595.579346,165.054245 
	C601.672058,162.867386 604.829285,165.204056 606.296265,171.446991 
	C607.390930,176.105515 608.889771,180.516724 605.056030,185.128952 
	C616.923157,184.245575 626.490051,188.600845 636.256470,192.333618 
	C636.796997,191.105530 637.432373,190.344879 637.414124,189.600204 
	C637.172363,179.707199 643.715881,174.265732 650.321838,168.325516 
	C662.247375,157.601791 671.650940,145.070328 674.943787,128.764938 
	C676.701599,120.060616 677.008606,111.217232 677.350769,102.461021 
	C677.656860,94.626801 676.722900,86.835831 672.965637,79.268898 
	C667.115662,67.487473 664.093262,54.551079 660.109680,41.590103 
	C655.726135,45.128551 648.791748,44.151718 645.273682,49.676594 
	C636.168762,63.975025 624.828979,76.856239 618.371643,92.841827 
	C614.880432,101.484436 610.825012,109.899132 606.696228,119.101372 
M359.338928,263.870422 
	C352.100006,278.855957 344.920715,293.870819 337.573547,308.803101 
	C336.041473,311.916870 337.425537,313.714386 339.388275,315.578033 
	C341.841461,315.439423 342.852448,313.510559 344.233826,312.158325 
	C347.079132,309.372986 349.814606,306.564087 353.110504,304.184692 
	C365.984741,294.890381 380.137238,287.733185 393.690887,279.595520 
	C403.548401,273.677032 414.514496,270.091431 425.817108,267.643494 
	C446.673981,263.126312 467.941315,261.576691 489.016388,258.638672 
	C498.570435,257.306763 508.088593,255.246292 517.763000,255.800674 
	C524.705505,256.198486 531.924744,255.785126 537.549072,261.891266 
	C539.488586,263.996948 543.691772,265.271393 546.970764,262.699036 
	C547.315735,261.064514 546.506653,260.042328 545.585083,259.451111 
	C537.530701,254.284195 532.532898,245.937485 525.194336,240.021423 
	C513.826782,230.857330 501.390717,225.717575 486.342468,227.349884 
	C469.989380,229.123734 453.828033,232.292358 437.652496,234.885468 
	C410.154541,239.293701 383.986755,248.920868 359.338928,263.870422 
M716.062439,486.633514 
	C725.636597,475.504333 725.232605,462.442749 722.432800,449.389069 
	C720.868835,442.097290 714.842041,437.657318 708.910583,433.238831 
	C708.136414,434.547119 707.753723,434.942596 707.664856,435.395721 
	C707.474426,436.365814 707.462708,437.369324 707.331116,438.352844 
	C705.624756,451.101929 703.118408,463.615967 695.759277,474.535004 
	C692.397461,479.522980 689.843201,484.933075 687.066223,490.228607 
	C685.257141,493.678345 684.650208,497.358368 685.378479,501.760345 
	C687.977600,499.958893 690.577393,497.819183 692.964661,500.938568 
	C694.490234,502.932037 695.503723,505.681244 693.505127,507.837799 
	C690.691711,510.873474 688.195068,508.124329 685.293152,506.346375 
	C686.631531,510.982574 686.962463,515.415527 690.104858,519.537292 
	C702.036987,511.178314 707.885681,498.417572 716.062439,486.633514 
M333.363464,374.771027 
	C328.745178,390.517578 329.381653,406.707611 329.315338,422.837341 
	C329.309753,424.189758 329.376831,425.630310 330.817322,426.271088 
	C332.300079,426.930634 333.356110,425.816345 334.343506,424.976654 
	C340.820129,419.469269 347.148590,413.691650 355.639069,411.415863 
	C359.121582,410.482422 359.563751,408.816589 358.375183,405.603455 
	C351.840118,387.936951 346.622253,369.941864 345.515015,350.982239 
	C345.442139,349.734680 345.237946,348.351532 343.617065,347.027313 
	C339.016693,355.690033 336.181610,364.794373 333.363464,374.771027 
M576.100159,629.626221 
	C579.687988,622.235352 579.626648,621.877380 574.051575,618.886353 
	C563.374634,630.155823 550.402954,638.884277 538.544495,648.826599 
	C545.278198,658.652954 553.116821,659.253601 561.130188,651.478088 
	C567.457031,645.339050 571.950439,638.086121 576.100159,629.626221 
M601.697510,531.264465 
	C599.285095,531.190979 597.125366,530.365662 595.295288,528.839661 
	C593.537964,527.374451 592.060303,527.873840 590.366028,528.998718 
	C585.056519,532.523987 585.098145,536.793518 590.503967,540.354797 
	C591.741394,541.169983 592.835510,542.211548 593.955139,543.195129 
	C598.170471,546.898071 603.243103,547.337952 608.457825,546.804260 
	C612.151489,546.426208 615.577881,544.629578 616.270630,540.908264 
	C616.888428,537.589600 618.223633,534.617615 619.061157,531.450562 
	C620.002747,527.890076 619.117004,524.763916 615.135742,522.557190 
	C613.290222,529.319031 608.453613,531.139160 601.697510,531.264465 
M620.994141,447.490295 
	C624.484436,451.015198 627.621399,455.006256 632.882080,456.117706 
	C635.769897,456.727844 637.896301,456.071198 636.907532,452.717590 
	C634.096619,443.183929 631.186523,433.667114 626.996765,424.612335 
	C626.273438,423.049042 625.202820,422.159546 623.453735,423.107727 
	C620.767517,424.563965 618.119080,426.089874 615.512390,427.553772 
	C617.733887,432.461395 623.664734,433.427551 625.746887,438.679443 
	C621.307007,439.148956 619.118591,436.727997 616.839722,434.752747 
	C614.672119,432.873962 612.496765,431.144348 609.613342,430.580750 
	C607.808167,430.227936 606.185669,430.757019 605.287537,432.317596 
	C604.234558,434.147247 605.983521,434.952545 607.076050,435.867065 
	C611.530518,439.595642 616.012939,443.290771 620.994141,447.490295 
M491.244324,404.255005 
	C481.568848,395.312408 473.531738,384.955109 465.710358,374.382568 
	C471.684082,384.180389 477.730957,393.891266 485.130829,402.627563 
	C497.429169,417.147095 510.290222,431.098175 526.969421,440.819946 
	C533.820374,444.813141 535.305176,444.242645 538.926941,436.475189 
	C530.126709,432.944641 521.538208,428.997375 513.702209,423.574921 
	C505.724640,418.054443 498.436768,411.759552 491.244324,404.255005 
M605.735596,482.460541 
	C604.307007,490.216339 606.506836,495.040436 612.148438,496.523956 
	C617.582642,497.952972 622.480835,495.462769 624.093079,490.451294 
	C626.001282,484.520020 622.425171,476.707153 616.905457,474.748322 
	C611.753662,472.920074 608.508240,474.988220 605.735596,482.460541 
M407.789459,518.237732 
	C402.958923,520.333130 402.628326,524.504944 403.411072,528.754944 
	C404.332245,533.756104 406.067139,538.346497 411.804626,540.047180 
	C415.348999,541.097717 418.191040,540.156494 420.245087,537.487183 
	C423.268616,533.557922 423.415894,529.282104 420.740051,524.946106 
	C417.035187,518.942627 413.636047,516.942810 407.789459,518.237732 
M413.008362,587.534973 
	C417.683044,588.104126 421.327240,585.815796 422.279572,581.720154 
	C423.615601,575.974304 427.784546,569.758972 421.848206,564.066711 
	C421.753326,563.975769 421.537262,564.011169 420.806396,563.903198 
	C417.554626,569.414246 412.740265,571.657410 405.890778,570.109436 
	C402.832336,569.418213 402.669617,573.298767 403.479401,574.745117 
	C405.975525,579.203430 406.475372,585.198792 413.008362,587.534973 
M601.868347,772.630554 
	C598.825500,769.091614 597.526489,764.188232 593.628418,761.189270 
	C588.281555,767.194336 588.248108,768.758362 592.714355,774.110046 
	C593.984680,775.632263 595.087891,777.311584 596.124329,779.006592 
	C597.304871,780.937195 598.911194,782.236084 600.991882,783.079102 
	C602.376587,783.640076 603.632202,783.474121 604.749756,782.633728 
	C606.073669,781.638306 605.757202,780.245850 605.195618,779.013123 
	C604.302124,777.051697 603.256287,775.159668 601.868347,772.630554 
M344.318329,537.197632 
	C345.301514,530.464539 341.078918,522.393860 334.060822,518.246643 
	C334.986908,525.413818 337.779510,531.599792 340.342590,537.822449 
	C341.219513,539.951416 342.745422,538.756226 344.318329,537.197632 
M519.301697,705.377441 
	C516.959167,702.565125 514.196716,702.566528 511.441071,704.515625 
	C509.172668,706.119934 508.467804,708.505554 509.653870,711.079895 
	C510.689453,713.327698 512.798645,714.054626 515.065918,713.517212 
	C518.640137,712.669922 520.297485,710.305115 519.710876,706.561218 
	C519.685425,706.398682 519.640198,706.239258 519.301697,705.377441 
M399.267639,554.969543 
	C395.107391,556.205566 391.801758,562.777161 393.745056,566.250122 
	C394.771667,568.084839 396.429626,569.393982 398.662079,568.083923 
	C401.112671,566.645935 401.898010,557.699280 399.267639,554.969543 
M517.692566,678.099609 
	C516.167053,682.566711 517.542542,685.496582 521.331116,685.688721 
	C524.078003,685.828003 526.158691,684.640137 527.235107,682.064453 
	C528.140686,679.897522 527.135498,678.152344 525.520142,676.827271 
	C522.888000,674.668213 520.371338,675.044739 517.692566,678.099609 
M583.011353,512.615723 
	C582.112488,513.575378 581.106750,514.457031 580.337219,515.511108 
	C578.779663,517.644653 577.723816,520.135132 580.269165,522.054199 
	C582.895142,524.033997 584.824341,522.193176 586.374878,520.010742 
	C587.041748,519.072021 587.739990,518.155640 588.418457,517.225098 
	C589.664001,515.516846 590.488892,513.669678 588.778320,511.881897 
	C587.043579,510.068848 585.207397,510.777313 583.011353,512.615723 
z"/>
<path fill="#000000" opacity="1.000000" stroke="none" 
	d="
M533.522705,875.576172 
	C539.285828,861.370850 541.496460,846.717346 543.584839,832.071350 
	C545.159119,821.030029 546.054382,809.910828 545.800293,798.721130 
	C545.675415,793.220886 545.787659,787.741089 543.880859,782.441345 
	C543.452698,781.251343 543.544922,779.802979 543.673035,778.500671 
	C543.857666,776.623718 545.103943,775.365234 546.925781,775.260498 
	C548.943726,775.144470 549.126831,776.909119 549.331848,778.414246 
	C550.632568,787.965027 552.272949,797.485840 553.134338,807.076416 
	C554.446716,821.688293 553.346985,835.936951 550.215332,850.569031 
	C547.473877,863.378418 545.618652,876.606812 543.310791,889.636414 
	C542.530396,894.042297 541.176270,898.361206 539.874634,902.656250 
	C538.444580,907.375488 535.998962,911.025879 530.400146,911.612976 
	C527.524109,911.914612 526.296814,915.295044 523.391113,916.113647 
	C518.822083,917.400757 514.187317,917.684509 509.533356,917.552917 
	C492.539246,917.072632 475.617767,917.958069 458.656250,919.086670 
	C440.875305,920.269653 423.066345,919.411316 405.329712,917.031433 
	C396.780823,915.884399 388.021729,916.332886 379.458527,915.257263 
	C363.783173,913.288025 347.890564,914.400208 332.294128,911.504150 
	C306.825287,906.775085 298.981323,884.042908 310.931946,862.942627 
	C311.422882,862.075867 311.914581,861.146667 312.622833,860.475403 
	C322.570221,851.046570 331.119293,840.371765 342.409424,832.068604 
	C357.943542,820.644348 375.219360,812.382629 391.570923,802.526245 
	C404.732422,794.592773 417.770294,785.919373 432.626953,781.017456 
	C434.405487,780.430603 436.178925,779.309143 439.503113,780.634521 
	C432.796356,784.819763 427.012634,788.556763 421.106781,792.089600 
	C405.392975,801.489502 389.249908,810.259766 376.177795,823.445007 
	C375.480652,824.148132 374.699707,824.868530 373.816620,825.271606 
	C363.434601,830.010864 355.047363,837.827087 345.367371,843.640564 
	C342.772339,845.199097 340.295746,846.893555 338.577850,849.432678 
	C335.547729,853.911316 331.648132,857.502930 327.384705,860.754456 
	C320.913940,865.689514 318.001404,872.561096 316.362610,880.303284 
	C314.537598,888.925232 325.204285,899.641113 333.192322,900.723206 
	C339.117279,901.525757 344.990204,901.777649 350.977631,901.882751 
	C364.098328,902.113098 377.188141,903.836914 390.311981,904.222229 
	C408.942749,904.769043 427.345642,909.035034 446.059082,907.657776 
	C468.816437,905.982910 491.589508,905.221924 514.402710,905.718201 
	C519.751587,905.834473 522.583374,902.672729 524.405640,898.169006 
	C527.403503,890.759705 530.378479,883.341125 533.522705,875.576172 
z"/>
<path fill="#000000" opacity="1.000000" stroke="none" 
	d="
M533.166382,762.421448 
	C532.692383,764.025146 532.340881,765.298584 531.921631,766.549377 
	C530.741882,770.068787 528.466797,771.872742 524.736938,770.468018 
	C520.912598,769.027710 520.041382,766.164734 521.540405,762.457092 
	C522.459106,760.184753 524.985840,757.862549 520.695984,755.714478 
	C525.073608,753.773987 528.719055,752.759277 532.373535,755.649597 
	C534.732239,757.514893 534.401978,759.739319 533.166382,762.421448 
z"/>
<path fill="#000000" opacity="1.000000" stroke="none" 
	d="
M516.443726,765.330933 
	C514.204651,768.697571 511.374664,769.321960 508.481506,767.454041 
	C505.830902,765.742493 505.988800,762.958618 507.230835,760.308167 
	C508.652283,757.274719 509.932678,753.945923 514.333008,754.727966 
	C517.076538,755.215515 518.377319,757.078552 518.111816,759.722229 
	C517.932800,761.504272 517.154846,763.226135 516.443726,765.330933 
z"/>
<path fill="#000000" opacity="1.000000" stroke="none" 
	d="
M544.638367,761.311768 
	C542.922791,761.841431 541.596985,764.354919 540.191040,762.031616 
	C538.652649,759.489380 541.439941,759.071899 542.826843,758.378235 
	C545.465942,757.058105 548.022888,756.959961 549.777832,759.976562 
	C548.311157,761.873047 546.510315,760.894165 544.638367,761.311768 
z"/>
<path fill="#000000" opacity="1.000000" stroke="none" 
	d="
M502.506042,608.809570 
	C499.842377,607.535889 498.070129,605.970764 499.122467,603.207275 
	C500.182953,600.422607 502.701843,600.383301 505.013763,601.173096 
	C508.795776,602.465210 511.828766,600.683350 514.937988,599.169373 
	C517.051819,598.140015 519.162964,597.484436 520.671326,599.775513 
	C522.053467,601.874878 520.509155,603.523560 519.124084,605.009521 
	C514.581482,609.883057 509.197906,611.355530 502.506042,608.809570 
z"/>
<path fill="#000000" opacity="1.000000" stroke="none" 
	d="
M381.946167,592.195312 
	C383.863464,588.051025 386.067993,585.819031 389.820129,589.828857 
	C390.518005,590.574646 391.156769,590.429443 392.016327,590.281128 
	C396.522125,589.503418 397.476746,592.190063 397.244110,595.863953 
	C397.081879,598.426270 396.685486,601.178406 393.561340,601.529724 
	C390.238068,601.903442 389.467255,599.399048 389.466095,595.942505 
	C387.687256,598.127930 387.218170,601.149902 384.114929,600.694031 
	C382.491638,600.455566 381.413666,599.464294 380.967865,597.891541 
	C380.433350,596.005859 381.414917,594.327576 381.946167,592.195312 
z"/>
<path fill="#000000" opacity="1.000000" stroke="none" 
	d="
M652.233826,524.062012 
	C651.066223,524.301270 650.234924,524.516663 649.431641,524.439697 
	C646.597290,524.167908 644.204712,523.183838 643.761841,519.940979 
	C643.528625,518.233459 643.740601,516.395752 645.620056,515.760132 
	C648.668213,514.729248 651.142212,516.388184 653.137268,518.339233 
	C654.968933,520.130554 654.638977,522.231140 652.233826,524.062012 
z"/>
<path fill="#000000" opacity="1.000000" stroke="none" 
	d="
M644.497192,527.687378 
	C646.220398,529.627258 646.885986,531.444153 645.192627,533.279541 
	C643.742554,534.851196 641.925049,534.579895 640.128601,533.819641 
	C638.013367,532.924500 636.357483,531.679382 636.416199,529.086975 
	C636.448975,527.637939 637.057495,526.459656 638.375793,525.867554 
	C640.695618,524.825623 642.544373,525.888794 644.497192,527.687378 
z"/>
<path fill="#000000" opacity="1.000000" stroke="none" 
	d="
M231.980347,266.177185 
	C232.587769,268.498077 232.997559,270.459290 233.590836,272.363281 
	C235.521698,278.559814 240.910156,281.874084 247.342285,280.897247 
	C252.285797,280.146423 255.949600,281.999115 256.816040,286.021637 
	C257.800171,290.590607 255.274170,293.207550 251.319855,294.847656 
	C240.062119,299.516937 223.174438,291.918488 220.258331,278.912262 
	C217.433853,266.314514 211.350342,257.553650 200.389160,251.420883 
	C196.533722,249.263763 194.330948,245.291336 192.256927,241.459961 
	C188.571930,234.652588 190.711090,228.241089 197.635483,224.759018 
	C200.483978,223.326614 203.164459,223.461670 205.599777,225.369080 
	C208.063354,227.298615 209.204834,230.216293 207.863983,232.945404 
	C205.930573,236.880615 207.899597,238.834717 210.650574,240.765274 
	C213.105469,242.488037 215.557480,244.220001 218.079056,245.841736 
	C225.453720,250.584717 230.225601,257.099152 231.980347,266.177185 
z"/>
<path fill="#000000" opacity="1.000000" stroke="none" 
	d="
M636.729370,134.753723 
	C645.406738,121.474541 648.030701,107.266960 645.922180,92.049576 
	C645.716309,90.563675 645.375488,89.171394 644.687378,87.785934 
	C642.016479,82.408791 643.508545,78.004013 648.538391,75.961166 
	C653.224731,74.057823 658.040894,76.710213 659.337646,82.461449 
	C661.359375,91.427650 661.415710,100.526260 660.910339,109.716095 
	C660.129456,123.914345 653.756409,135.814743 646.578735,147.492645 
	C645.796631,148.765060 644.991821,150.025635 644.269653,151.331528 
	C644.044495,151.738708 644.056641,152.277039 643.916504,152.971481 
	C645.270386,154.091705 646.720337,155.172455 648.031189,156.401550 
	C650.499573,158.716156 651.074585,161.635376 649.679626,164.598404 
	C648.263000,167.607483 645.568542,168.842026 642.230164,168.370209 
	C639.282837,167.953674 636.332458,167.533524 633.408691,166.981125 
	C624.691467,165.334137 621.830444,159.320709 626.283386,151.585815 
	C629.515381,145.971924 633.114197,140.569275 636.729370,134.753723 
z"/>
<path fill="#000000" opacity="1.000000" stroke="none" 
	d="
M528.422485,254.710434 
	C526.856934,254.147171 525.485229,253.961288 524.748352,252.667130 
	C528.608643,249.571503 530.058716,249.937317 533.327332,254.882935 
	C531.781006,256.280792 530.266602,255.078369 528.422485,254.710434 
z"/>
</svg>